<svg width="116" height="89" viewBox="0 0 116 89" fill="none" xmlns="http://www.w3.org/2000/svg">
<path d="M106.231 20.7727L102.577 76.8324C102.38 79.8539 100.91 82.6933 98.4681 84.7694C96.026 86.8455 92.7965 88.0012 89.4406 88H26.5594C23.2035 88.0012 19.974 86.8455 17.5319 84.7694C15.0899 82.6933 13.62 79.8539 13.4231 76.8324L9.76923 20.7727M46.3077 40.5455H69.6923H46.3077ZM7.57692 20.7727H108.423C112.054 20.7727 115 18.1153 115 14.8409V6.93182C115 3.65745 112.054 1 108.423 1H7.57692C3.94646 1 1 3.65745 1 6.93182V14.8409C1 18.1153 3.94646 20.7727 7.57692 20.7727Z" fill="#F59E0B" fill-opacity="0.86"/>
<path d="M106.231 20.7727L102.577 76.8324C102.38 79.8539 100.91 82.6933 98.4681 84.7694C96.026 86.8455 92.7965 88.0012 89.4406 88H26.5594C23.2035 88.0012 19.974 86.8455 17.5319 84.7694C15.0899 82.6933 13.62 79.8539 13.4231 76.8324L9.76923 20.7727M46.3077 40.5455H69.6923M7.57692 20.7727H108.423C112.054 20.7727 115 18.1153 115 14.8409V6.93182C115 3.65745 112.054 1 108.423 1H7.57692C3.94646 1 1 3.65745 1 6.93182V14.8409C1 18.1153 3.94646 20.7727 7.57692 20.7727Z" stroke="black" stroke-width="1.5" stroke-linecap="round" stroke-linejoin="round"/>
</svg>
